<svg xmlns="http://www.w3.org/2000/svg" width="88.551" height="62" viewBox="0 0 88.551 62">
  <path id="_001-youtube" data-name="001-youtube" d="M86.727,3.619a11.093,11.093,0,0,0-7.8-7.806c-6.929-1.9-34.648-1.9-34.648-1.9s-27.717,0-34.647,1.824a11.319,11.319,0,0,0-7.8,7.877C0,10.548,0,24.918,0,24.918s0,14.442,1.824,21.3a11.1,11.1,0,0,0,7.8,7.8c7,1.9,34.647,1.9,34.647,1.9s27.717,0,34.647-1.824a11.094,11.094,0,0,0,7.806-7.8c1.823-6.929,1.823-21.3,1.823-21.3S88.624,10.548,86.727,3.619ZM35.45,38.193V11.643L58.5,24.918Zm0,0" transform="translate(0 6.082)" fill="#fff"/>
</svg>
