<svg xmlns="http://www.w3.org/2000/svg" width="61.887" height="62" viewBox="0 0 61.887 62">
  <g id="_002-instagram" data-name="002-instagram" transform="translate(-0.449)">
    <path id="Path_8" data-name="Path 8" d="M62.179,18.228a22.687,22.687,0,0,0-1.439-7.522,15.869,15.869,0,0,0-9.057-9.072A22.644,22.644,0,0,0,44.174.194C40.86.036,39.808,0,31.4,0S21.949.036,18.648.182a22.592,22.592,0,0,0-7.509,1.441,15.1,15.1,0,0,0-5.49,3.585,15.267,15.267,0,0,0-3.567,5.487A22.748,22.748,0,0,0,.643,18.216C.486,21.535.449,22.588.449,31.006s.036,9.471.181,12.778A22.686,22.686,0,0,0,2.07,51.306a15.867,15.867,0,0,0,9.057,9.072,22.647,22.647,0,0,0,7.509,1.441c3.3.146,4.353.182,12.757.182s9.456-.036,12.757-.182a22.58,22.58,0,0,0,7.509-1.441,15.846,15.846,0,0,0,9.057-9.072,22.764,22.764,0,0,0,1.439-7.522c.145-3.307.181-4.36.181-12.778S62.324,21.535,62.179,18.228ZM56.6,43.542a17.018,17.018,0,0,1-1.064,5.753,10.276,10.276,0,0,1-5.877,5.887,17,17,0,0,1-5.744,1.065c-3.265.146-4.244.182-12.5.182s-9.25-.036-12.5-.182a16.933,16.933,0,0,1-5.744-1.065,9.523,9.523,0,0,1-3.555-2.314,9.641,9.641,0,0,1-2.31-3.561,17.081,17.081,0,0,1-1.064-5.753C6.1,40.284,6.06,39.3,6.06,31.03s.036-9.266.181-12.523a17.009,17.009,0,0,1,1.064-5.753A9.425,9.425,0,0,1,9.627,9.193,9.607,9.607,0,0,1,13.182,6.88a17.013,17.013,0,0,1,5.744-1.066c3.265-.145,4.244-.182,12.5-.182s9.25.036,12.5.182A16.942,16.942,0,0,1,49.676,6.88a9.516,9.516,0,0,1,3.555,2.313,9.639,9.639,0,0,1,2.31,3.561A17.087,17.087,0,0,1,56.6,18.507c.145,3.27.181,4.251.181,12.523S56.749,40.272,56.6,43.542Zm0,0" transform="translate(0 0)" fill="#fff"/>
    <path id="Path_9" data-name="Path 9" d="M140.85,124.5a15.952,15.952,0,1,0,15.9,15.952A15.93,15.93,0,0,0,140.85,124.5Zm0,26.3a10.348,10.348,0,1,1,10.315-10.347A10.333,10.333,0,0,1,140.85,150.8Zm0,0" transform="translate(-109.446 -109.446)" fill="#fff"/>
    <path id="Path_10" data-name="Path 10" d="M369.874,92.314a3.712,3.712,0,1,1-3.713-3.712A3.712,3.712,0,0,1,369.874,92.314Zm0,0" transform="translate(-318.227 -77.868)" fill="#fff"/>
  </g>
</svg>
