<svg id="_003-linkedin-logo" data-name="003-linkedin-logo" xmlns="http://www.w3.org/2000/svg" width="62" height="62" viewBox="0 0 62 62">
  <g id="post-linkedin">
    <path id="Path_11" data-name="Path 11" d="M55.8,0H6.2A6.218,6.218,0,0,0,0,6.2V55.8A6.218,6.218,0,0,0,6.2,62H55.8A6.218,6.218,0,0,0,62,55.8V6.2A6.218,6.218,0,0,0,55.8,0ZM18.6,52.7H9.3V24.8h9.3ZM13.95,19.53a5.58,5.58,0,1,1,5.58-5.58A5.557,5.557,0,0,1,13.95,19.53ZM52.7,52.7H43.4V36.27a4.65,4.65,0,0,0-9.3,0V52.7H24.8V24.8h9.3v3.72a10.014,10.014,0,0,1,7.75-4.34A10.984,10.984,0,0,1,52.7,35.03Z" fill="#fff"/>
  </g>
</svg>
