<svg xmlns="http://www.w3.org/2000/svg" width="63.567" height="62" viewBox="0 0 63.567 62">
  <path id="iconmonstr-github-1" d="M31.784,0A31.787,31.787,0,0,0,21.737,61.944c1.587.294,2.1-.691,2.1-1.528V54.5c-8.841,1.923-10.682-3.75-10.682-3.75C11.71,47.074,9.625,46.1,9.625,46.1c-2.884-1.973.22-1.931.22-1.931,3.192.222,4.871,3.276,4.871,3.276,2.834,4.858,7.435,3.454,9.249,2.641a6.743,6.743,0,0,1,2.018-4.248C18.925,45.027,11.5,42.3,11.5,30.126a12.3,12.3,0,0,1,3.274-8.531,11.432,11.432,0,0,1,.31-8.412s2.67-.853,8.743,3.258a30.126,30.126,0,0,1,15.916,0c6.068-4.111,8.733-3.258,8.733-3.258a11.421,11.421,0,0,1,.313,8.412,12.269,12.269,0,0,1,3.271,8.531c0,12.208-7.435,14.9-14.512,15.683,1.139.985,2.18,2.919,2.18,5.885v8.722c0,.845.509,1.838,2.122,1.526A31.79,31.79,0,0,0,31.784,0Z" fill="#fff"/>
</svg>
