<svg xmlns="http://www.w3.org/2000/svg" xmlns:xlink="http://www.w3.org/1999/xlink" width="307.118" height="84.344" viewBox="0 0 307.118 84.344">
  <defs>
    <filter id="Path_2" x="0" y="0" width="307.118" height="84.344" filterUnits="userSpaceOnUse">
      <feOffset dy="6" input="SourceAlpha"/>
      <feGaussianBlur stdDeviation="3" result="blur"/>
      <feFlood flood-opacity="0.161"/>
      <feComposite operator="in" in2="blur"/>
    </filter>
    <filter id="Path_2-2" x="0" y="0" width="307.118" height="84.344" filterUnits="userSpaceOnUse">
      <feOffset dy="4" input="SourceAlpha"/>
      <feGaussianBlur stdDeviation="3" result="blur-2"/>
      <feFlood flood-color="#121419" flood-opacity="0.263" result="color"/>
      <feComposite operator="out" in="SourceGraphic" in2="blur-2"/>
      <feComposite operator="in" in="color"/>
      <feComposite operator="in" in2="SourceGraphic"/>
    </filter>
  </defs>
  <g id="Logo" transform="translate(-24.097 -15.02)">
    <text id="Lisa_s_Portfolio." data-name="Lisa’s Portfolio." transform="translate(109 56)" fill="#121419" font-size="20" font-family="AmericanTypewriter, American Typewriter"><tspan x="0" y="0">Lisa’s </tspan><tspan y="0" font-family="AmericanTypewriter-Semibold, American Typewriter" font-weight="600">Portfolio</tspan><tspan y="0">.</tspan></text>
    <g data-type="innerShadowGroup">
      <g transform="matrix(1, 0, 0, 1, 24.1, 15.02)" filter="url(#Path_2)">
        <path id="Path_2-3" data-name="Path 2" d="M6085.811,397.84l65.51.049.4-.519.163-2.265-.163-1.849-.178-.9-.226-.637-.108-.406-.285-.706-.117-.364-.3-.571-.228-.5-.671-1.011-1.117-1.2,9.15-9.031,2.326.7,6.225.757,5.356.609h4.233l6.046-.135,4.781-.107,7.667-.973,8.522-1.6,7.249-1.964,7.471-2.724,7.653-3.464,6.918-4.074,7.616,4.074.628.474,8.848,3.775,6.386,2.073,7.023,2.28,6.838,1.322,4.9.834,5.014.512,5.205.287h5.186l4.973-.287,5.536-.512,3.989-1.036,3.652-.707,5.988,6.149,2.755,3.281-1.792,3.134-.679,1.9-.409,2.234-.125,1.416v2.712l.25,2.384.761,2.187.962,1.836,1.23,1.55.94,1.027-9.476,9.113h-.751l-6.812-1.385-8.949-.709h-6.688l-6.708.412-9.035,1.25-7.5,1.637-9.592,2.909-7.154,2.771-6.353,3-3.986,2.162-2.011,1.123-3.033-2.083-4.195-2.4-8.128-3.79-9.019-2.764L6200,417.055l-7.446-1.065-9.561-.63h-10.41l-6.476.586-8.723,1.19-4.877-5.315-3.772-4.116,3.381-2.855,6.534,7.82,3.394-.64,6.115-1.094,7.1-.611h7.871l7.647.481,7.625.774,6.92,1.427,8.63,2.66,7.087,2.927,6.574,3.272,5.139,3.207,4.393-2.817,5.71-2.907,7.908-3.461,7.313-2.427,7.528-1.792,7.365-1.281,6.075-.637h11.557l7.557.966,5.083,1.025,3.913,1.071,5.609-5.825-1.513-2.189-.865-2.163-.411-1.619v-3.433h64.948" transform="translate(-6076.81 -361.38)" fill="none" stroke="#707070" stroke-width="1"/>
      </g>
      <g transform="matrix(1, 0, 0, 1, 24.1, 15.02)" filter="url(#Path_2-2)">
        <path id="Path_2-4" data-name="Path 2" d="M6085.811,397.84l65.51.049.4-.519.163-2.265-.163-1.849-.178-.9-.226-.637-.108-.406-.285-.706-.117-.364-.3-.571-.228-.5-.671-1.011-1.117-1.2,9.15-9.031,2.326.7,6.225.757,5.356.609h4.233l6.046-.135,4.781-.107,7.667-.973,8.522-1.6,7.249-1.964,7.471-2.724,7.653-3.464,6.918-4.074,7.616,4.074.628.474,8.848,3.775,6.386,2.073,7.023,2.28,6.838,1.322,4.9.834,5.014.512,5.205.287h5.186l4.973-.287,5.536-.512,3.989-1.036,3.652-.707,5.988,6.149,2.755,3.281-1.792,3.134-.679,1.9-.409,2.234-.125,1.416v2.712l.25,2.384.761,2.187.962,1.836,1.23,1.55.94,1.027-9.476,9.113h-.751l-6.812-1.385-8.949-.709h-6.688l-6.708.412-9.035,1.25-7.5,1.637-9.592,2.909-7.154,2.771-6.353,3-3.986,2.162-2.011,1.123-3.033-2.083-4.195-2.4-8.128-3.79-9.019-2.764L6200,417.055l-7.446-1.065-9.561-.63h-10.41l-6.476.586-8.723,1.19-4.877-5.315-3.772-4.116,3.381-2.855,6.534,7.82,3.394-.64,6.115-1.094,7.1-.611h7.871l7.647.481,7.625.774,6.92,1.427,8.63,2.66,7.087,2.927,6.574,3.272,5.139,3.207,4.393-2.817,5.71-2.907,7.908-3.461,7.313-2.427,7.528-1.792,7.365-1.281,6.075-.637h11.557l7.557.966,5.083,1.025,3.913,1.071,5.609-5.825-1.513-2.189-.865-2.163-.411-1.619v-3.433h64.948" transform="translate(-6076.81 -361.38)" fill="#fff"/>
      </g>
      <path id="Path_2-5" data-name="Path 2" d="M6085.811,397.84l65.51.049.4-.519.163-2.265-.163-1.849-.178-.9-.226-.637-.108-.406-.285-.706-.117-.364-.3-.571-.228-.5-.671-1.011-1.117-1.2,9.15-9.031,2.326.7,6.225.757,5.356.609h4.233l6.046-.135,4.781-.107,7.667-.973,8.522-1.6,7.249-1.964,7.471-2.724,7.653-3.464,6.918-4.074,7.616,4.074.628.474,8.848,3.775,6.386,2.073,7.023,2.28,6.838,1.322,4.9.834,5.014.512,5.205.287h5.186l4.973-.287,5.536-.512,3.989-1.036,3.652-.707,5.988,6.149,2.755,3.281-1.792,3.134-.679,1.9-.409,2.234-.125,1.416v2.712l.25,2.384.761,2.187.962,1.836,1.23,1.55.94,1.027-9.476,9.113h-.751l-6.812-1.385-8.949-.709h-6.688l-6.708.412-9.035,1.25-7.5,1.637-9.592,2.909-7.154,2.771-6.353,3-3.986,2.162-2.011,1.123-3.033-2.083-4.195-2.4-8.128-3.79-9.019-2.764L6200,417.055l-7.446-1.065-9.561-.63h-10.41l-6.476.586-8.723,1.19-4.877-5.315-3.772-4.116,3.381-2.855,6.534,7.82,3.394-.64,6.115-1.094,7.1-.611h7.871l7.647.481,7.625.774,6.92,1.427,8.63,2.66,7.087,2.927,6.574,3.272,5.139,3.207,4.393-2.817,5.71-2.907,7.908-3.461,7.313-2.427,7.528-1.792,7.365-1.281,6.075-.637h11.557l7.557.966,5.083,1.025,3.913,1.071,5.609-5.825-1.513-2.189-.865-2.163-.411-1.619v-3.433h64.948" transform="translate(-6052.713 -346.361)" fill="none" stroke="#707070" stroke-width="1"/>
    </g>
  </g>
</svg>
