<svg xmlns="http://www.w3.org/2000/svg" xmlns:xlink="http://www.w3.org/1999/xlink" width="456.815" height="231.355" viewBox="0 0 456.815 231.355">
  <defs>
    <filter id="Path_2" x="0" y="0" width="456.815" height="231.355" filterUnits="userSpaceOnUse">
      <feOffset dy="6" input="SourceAlpha"/>
      <feGaussianBlur stdDeviation="3" result="blur"/>
      <feFlood flood-opacity="0.161"/>
      <feComposite operator="in" in2="blur"/>
    </filter>
    <filter id="Path_2-2" x="0" y="0" width="456.815" height="231.355" filterUnits="userSpaceOnUse">
      <feOffset dy="4" input="SourceAlpha"/>
      <feGaussianBlur stdDeviation="3" result="blur-2"/>
      <feFlood flood-color="#121419" flood-opacity="0.263" result="color"/>
      <feComposite operator="out" in="SourceGraphic" in2="blur-2"/>
      <feComposite operator="in" in="color"/>
      <feComposite operator="in" in2="SourceGraphic"/>
    </filter>
  </defs>
  <g id="Logo" transform="translate(-24.099 -13.272)">
    <text id="Lisa_s_Portfolio." data-name="Lisa’s Portfolio." transform="translate(157.007 127.88)" fill="#fff" stroke="#fff" stroke-width="1" font-size="27" font-family="AmericanTypewriter, American Typewriter"><tspan x="0" y="0">Lisa’s </tspan><tspan y="0" font-family="AmericanTypewriter-Semibold, American Typewriter" font-weight="600">Portfolio</tspan><tspan y="0">.</tspan></text>
    <g data-type="innerShadowGroup">
      <g transform="matrix(1, 0, 0, 1, 24.1, 13.27)" filter="url(#Path_2)">
        <path id="Path_2-3" data-name="Path 2" d="M6085.811,470.181l99.431.157.606-1.661.248-7.248-.248-5.917-.27-2.88-.344-2.038-.164-1.3-.433-2.259-.178-1.165-.455-1.827-.347-1.6-1.018-3.235-1.7-3.84,13.887-28.9,3.531,2.24,9.449,2.422,8.128,1.949h6.426l9.176-.432,7.256-.342,11.638-3.113,12.934-5.12,11-6.284,11.34-8.716,11.614-11.084,10.5-13.036,11.561,13.036.953,1.517,13.43,12.079,9.693,6.633,10.659,7.3,10.379,4.23,7.438,2.669,7.609,1.638,7.9.918h7.87l7.55-.918,8.4-1.638,6.055-3.315,5.541-2.262,9.089,19.676,4.182,10.5-2.719,10.028-1.031,6.08-.622,7.148-.189,4.531v8.678l.38,7.628,1.155,7,1.461,5.875,1.866,4.96,1.426,3.286-14.383,29.16h-1.14L6412,526.952l-13.583-2.269h-10.151L6378.086,526l-13.713,4-11.385,5.238-14.557,9.308-10.859,8.867-9.641,9.6-6.051,6.918-3.052,3.593-4.6-6.665-6.366-7.68-12.337-12.127-13.688-8.844-12.707-6.543-11.3-3.408-14.512-2.016h-15.8l-9.83,1.875-13.24,3.808-7.4-17.007-5.726-13.171,5.132-9.135,9.918,25.023,5.152-2.048,9.281-3.5,10.776-1.955h11.946l11.605,1.539,11.574,2.477,10.5,4.566,13.1,8.512,10.757,9.366,9.979,10.47,7.8,10.262,6.667-9.014,8.667-9.3,12-11.075,11.1-7.766,11.426-5.734,11.179-4.1,9.221-2.038h17.541l11.471,3.091,7.715,3.28,5.939,3.427,8.514-18.639-2.3-7-1.313-6.921-.623-5.181V469.362h98.578" transform="translate(-6076.81 -359.63)" fill="none" stroke="#fff" stroke-width="3"/>
      </g>
      <g transform="matrix(1, 0, 0, 1, 24.1, 13.27)" filter="url(#Path_2-2)">
        <path id="Path_2-4" data-name="Path 2" d="M6085.811,470.181l99.431.157.606-1.661.248-7.248-.248-5.917-.27-2.88-.344-2.038-.164-1.3-.433-2.259-.178-1.165-.455-1.827-.347-1.6-1.018-3.235-1.7-3.84,13.887-28.9,3.531,2.24,9.449,2.422,8.128,1.949h6.426l9.176-.432,7.256-.342,11.638-3.113,12.934-5.12,11-6.284,11.34-8.716,11.614-11.084,10.5-13.036,11.561,13.036.953,1.517,13.43,12.079,9.693,6.633,10.659,7.3,10.379,4.23,7.438,2.669,7.609,1.638,7.9.918h7.87l7.55-.918,8.4-1.638,6.055-3.315,5.541-2.262,9.089,19.676,4.182,10.5-2.719,10.028-1.031,6.08-.622,7.148-.189,4.531v8.678l.38,7.628,1.155,7,1.461,5.875,1.866,4.96,1.426,3.286-14.383,29.16h-1.14L6412,526.952l-13.583-2.269h-10.151L6378.086,526l-13.713,4-11.385,5.238-14.557,9.308-10.859,8.867-9.641,9.6-6.051,6.918-3.052,3.593-4.6-6.665-6.366-7.68-12.337-12.127-13.688-8.844-12.707-6.543-11.3-3.408-14.512-2.016h-15.8l-9.83,1.875-13.24,3.808-7.4-17.007-5.726-13.171,5.132-9.135,9.918,25.023,5.152-2.048,9.281-3.5,10.776-1.955h11.946l11.605,1.539,11.574,2.477,10.5,4.566,13.1,8.512,10.757,9.366,9.979,10.47,7.8,10.262,6.667-9.014,8.667-9.3,12-11.075,11.1-7.766,11.426-5.734,11.179-4.1,9.221-2.038h17.541l11.471,3.091,7.715,3.28,5.939,3.427,8.514-18.639-2.3-7-1.313-6.921-.623-5.181V469.362h98.578" transform="translate(-6076.81 -359.63)" fill="#fff"/>
      </g>
      <path id="Path_2-5" data-name="Path 2" d="M6085.811,470.181l99.431.157.606-1.661.248-7.248-.248-5.917-.27-2.88-.344-2.038-.164-1.3-.433-2.259-.178-1.165-.455-1.827-.347-1.6-1.018-3.235-1.7-3.84,13.887-28.9,3.531,2.24,9.449,2.422,8.128,1.949h6.426l9.176-.432,7.256-.342,11.638-3.113,12.934-5.12,11-6.284,11.34-8.716,11.614-11.084,10.5-13.036,11.561,13.036.953,1.517,13.43,12.079,9.693,6.633,10.659,7.3,10.379,4.23,7.438,2.669,7.609,1.638,7.9.918h7.87l7.55-.918,8.4-1.638,6.055-3.315,5.541-2.262,9.089,19.676,4.182,10.5-2.719,10.028-1.031,6.08-.622,7.148-.189,4.531v8.678l.38,7.628,1.155,7,1.461,5.875,1.866,4.96,1.426,3.286-14.383,29.16h-1.14L6412,526.952l-13.583-2.269h-10.151L6378.086,526l-13.713,4-11.385,5.238-14.557,9.308-10.859,8.867-9.641,9.6-6.051,6.918-3.052,3.593-4.6-6.665-6.366-7.68-12.337-12.127-13.688-8.844-12.707-6.543-11.3-3.408-14.512-2.016h-15.8l-9.83,1.875-13.24,3.808-7.4-17.007-5.726-13.171,5.132-9.135,9.918,25.023,5.152-2.048,9.281-3.5,10.776-1.955h11.946l11.605,1.539,11.574,2.477,10.5,4.566,13.1,8.512,10.757,9.366,9.979,10.47,7.8,10.262,6.667-9.014,8.667-9.3,12-11.075,11.1-7.766,11.426-5.734,11.179-4.1,9.221-2.038h17.541l11.471,3.091,7.715,3.28,5.939,3.427,8.514-18.639-2.3-7-1.313-6.921-.623-5.181V469.362h98.578" transform="translate(-6052.709 -346.36)" fill="none" stroke="#fff" stroke-width="3"/>
    </g>
  </g>
</svg>
